{"title":"Fear The Walking Dead S01E03 The Dog 1080P WEB-DL.DD5.1.H.264","uid":12420646,"size":2029132118,"categoryP":"video","categoryS":"hd___tv_shows","magnet":"?xt=urn:btih:d72fd57773da21f188a1513703c5c15eae714c31&amp;dn=Fear+The+Walking+Dead+S01E03+The+Dog+1080P+WEB-DL.DD5.1.H.264&amp;tr=udp%3A%2F%2Ftracker.openbittorrent.com%3A80&amp;tr=udp%3A%2F%2Fopen.demonii.com%3A1337&amp;tr=udp%3A%2F%2Ftracker.coppersurfer.tk%3A6969&amp;tr=udp%3A%2F%2Fexodus.desync.com%3A6969","seeders":3,"leechers":4,"uploader":"jmanwf","files":2,"time":1442297747,"description":"After escaping a violent riot Travis, Liza, and Chris seek refuge with the Salazar family. Meanwhile Madison defends her home.\n\n\n\nVideo\nID                                       : 2\nFormat                                   : AVC\nFormat/Info                              : Advanced Video Codec\nFormat profile                           : High@L4\nFormat settings, CABAC                   : Yes\nFormat settings, ReFrames                : 4 frames\nCodec ID                                 : avc1\nCodec ID/Info                            : Advanced Video Coding\nDuration                                 : 48mn 28s\nBit rate                                 : 5 069 Kbps\nWidth                                    : 1 920 pixels\nHeight                                   : 1 080 pixels\nDisplay aspect ratio                     : 16:9\nFrame rate mode                          : Constant\nFrame rate                               : 23.976 fps\nColor space                              : YUV\nChroma subsampling                       : 4:2:0\nBit depth                                : 8 bits\nScan type                                : Progressive\nBits/(Pixel*Frame)                       : 0.102\nStream size                              : 1.72 GiB (91%)\nLanguage                                 : English\nEncoded date                             : UTC 2015-09-14 08:48:24\nTagged date                              : UTC 2015-09-14 08:51:52\nColor range                              : Limited\nColor primaries                          : BT.709\nTransfer characteristics                 : BT.709\nMatrix coefficients                      : BT.709\n\nAudio #1\nID                                       : 1\nFormat                                   : AAC\nFormat/Info                              : Advanced Audio Codec\nFormat profile                           : LC\nCodec ID                                 : 40\nDuration                                 : 48mn 28s\nDuration_LastFrame                       : -1ms\nBit rate mode                            : Variable\nBit rate                                 : 124 Kbps\nMaximum bit rate                         : 202 Kbps\nChannel(s)                               : 2 channels\nChannel positions                        : Front: L R\nSampling rate                            : 48.0 KHz\nCompression mode                         : Lossy\nStream size                              : 43.0 MiB (2%)\nLanguage                                 : English\nEncoded date                             : UTC 2015-09-14 08:48:24\nTagged date                              : UTC 2015-09-14 08:51:52\n\nAudio #2\nID                                       : 3\nFormat                                   : AC-3\nFormat/Info                              : Audio Coding 3\nMode extension                           : CM (complete main)\nFormat settings, Endianness              : Big\nCodec ID                                 : ac-3\nDuration                                 : 48mn 28s\nBit rate mode                            : Constant\nBit rate                                 : 384 Kbps\nChannel(s)                               : 6 channels\nChannel positions                        : Front: L C R, Side: L R, LFE\nSampling rate                            : 48.0 KHz\nBit depth                                : 16 bits\nCompression mode                         : Lossy\nStream size                              : 133 MiB (7%)\nLanguage                                 : English\nEncoded date                             : UTC 2015-09-14 08:48:24\nTagged date                              : UTC 2015-09-14 08:51:52\n\nText\nID                                       : 4-CC1\nFormat                                   : EIA-608\nMuxing mode                              : Final Cut\nCodec ID                                 : c608\nDuration                                 : 48mn 2s\nBit rate mode                            : Constant\nStream size                              : 0.00 Byte (0%)\nLanguage                                 : English\nEncoded date                             : UTC 2015-09-14 08:48:24\nTagged date                              : UTC 2015-09-14 08:51:24","torrent":{"xt":"urn:btih:d72fd57773da21f188a1513703c5c15eae714c31","amp;dn":"Fear+The+Walking+Dead+S01E03+The+Dog+1080P+WEB-DL.DD5.1.H.264","amp;tr":["udp%3A%2F%2Ftracker.openbittorrent.com%3A80","udp%3A%2F%2Fopen.demonii.com%3A1337","udp%3A%2F%2Ftracker.coppersurfer.tk%3A6969","udp%3A%2F%2Fexodus.desync.com%3A6969"],"infoHash":"d72fd57773da21f188a1513703c5c15eae714c31","infoHashBuffer":{"type":"Buffer","data":[215,47,213,119,115,218,33,241,136,161,81,55,3,197,193,94,174,113,76,49]},"announce":[],"urlList":[]}}